<svg xmlns="http://www.w3.org/2000/svg" viewBox="0 0 1080 400" width="1080" height="400" font-family="system-ui, -apple-system, 'Segoe UI', Roboto, sans-serif" font-size="15" fill="#3b2a14">
<title>Parallel branches (schematic)</title>
<rect width="1080" height="400" fill="#fffaf0"/>
<defs><marker id="ah" viewBox="0 0 10 10" refX="9" refY="5" markerWidth="8" markerHeight="8" orient="auto-start-reverse"><path d="M0,0 L10,5 L0,10 z" fill="#9b7a4a"/></marker></defs><line x1="40" y1="50" x2="1040" y2="50" stroke="#3b2a14" stroke-width="5" stroke-linecap="round"/><text x="40" y="34" font-size="16" font-weight="700" font-family="ui-monospace, monospace">main</text><path d="M120,50 C150,110 150,110 190,110 L570,110 C610,110 610,50 640,50" fill="none" stroke="#3a6ea5" stroke-width="4"/><circle cx="230" cy="110" r="6" fill="#fff" stroke="#3a6ea5" stroke-width="3"/><circle cx="336.6666666666667" cy="110" r="6" fill="#fff" stroke="#3a6ea5" stroke-width="3"/><circle cx="443.33333333333337" cy="110" r="6" fill="#fff" stroke="#3a6ea5" stroke-width="3"/><circle cx="550" cy="110" r="6" fill="#fff" stroke="#3a6ea5" stroke-width="3"/><text x="300" y="98" font-size="14" font-weight="700" fill="#3a6ea5">Missions</text><circle cx="640" cy="50" r="8" fill="#3a6ea5" stroke="#3b2a14" stroke-width="2"/><path d="M150,50 C180,162 180,162 220,162 L630,162 C670,162 670,50 700,50" fill="none" stroke="#4f8a3c" stroke-width="4"/><circle cx="260" cy="162" r="6" fill="#fff" stroke="#4f8a3c" stroke-width="3"/><circle cx="376.6666666666667" cy="162" r="6" fill="#fff" stroke="#4f8a3c" stroke-width="3"/><circle cx="493.33333333333337" cy="162" r="6" fill="#fff" stroke="#4f8a3c" stroke-width="3"/><circle cx="610" cy="162" r="6" fill="#fff" stroke="#4f8a3c" stroke-width="3"/><text x="300" y="150" font-size="14" font-weight="700" fill="#4f8a3c">Game systems</text><circle cx="700" cy="50" r="8" fill="#4f8a3c" stroke="#3b2a14" stroke-width="2"/><path d="M180,50 C210,214 210,214 250,214 L690,214 C730,214 730,50 760,50" fill="none" stroke="#8a5cb5" stroke-width="4"/><circle cx="290" cy="214" r="6" fill="#fff" stroke="#8a5cb5" stroke-width="3"/><circle cx="416.6666666666667" cy="214" r="6" fill="#fff" stroke="#8a5cb5" stroke-width="3"/><circle cx="543.3333333333334" cy="214" r="6" fill="#fff" stroke="#8a5cb5" stroke-width="3"/><circle cx="670" cy="214" r="6" fill="#fff" stroke="#8a5cb5" stroke-width="3"/><text x="300" y="202" font-size="14" font-weight="700" fill="#8a5cb5">Graphics: LOD, instancing</text><circle cx="760" cy="50" r="8" fill="#8a5cb5" stroke="#3b2a14" stroke-width="2"/><path d="M210,50 C240,266 240,266 280,266 L750,266 C790,266 790,50 820,50" fill="none" stroke="#d89a2a" stroke-width="4"/><circle cx="320" cy="266" r="6" fill="#fff" stroke="#d89a2a" stroke-width="3"/><circle cx="456.66666666666663" cy="266" r="6" fill="#fff" stroke="#d89a2a" stroke-width="3"/><circle cx="593.3333333333333" cy="266" r="6" fill="#fff" stroke="#d89a2a" stroke-width="3"/><circle cx="730" cy="266" r="6" fill="#fff" stroke="#d89a2a" stroke-width="3"/><text x="300" y="254" font-size="14" font-weight="700" fill="#d89a2a">Sound</text><circle cx="820" cy="50" r="8" fill="#d89a2a" stroke="#3b2a14" stroke-width="2"/><path d="M240,50 C270,318 270,318 310,318 L880,318 C920,318 920,50 950,50" fill="none" stroke="#b5402a" stroke-width="4"/><circle cx="350" cy="318" r="6" fill="#fff" stroke="#b5402a" stroke-width="3"/><circle cx="520" cy="318" r="6" fill="#fff" stroke="#b5402a" stroke-width="3"/><circle cx="690" cy="318" r="6" fill="#fff" stroke="#b5402a" stroke-width="3"/><circle cx="860" cy="318" r="6" fill="#fff" stroke="#b5402a" stroke-width="3"/><text x="300" y="306" font-size="14" font-weight="700" fill="#b5402a">Interface: HUD, DE/EN</text><circle cx="950" cy="50" r="8" fill="#b5402a" stroke="#3b2a14" stroke-width="2"/><text x="950" y="80" text-anchor="middle" font-size="13" font-weight="700" fill="#b5402a">last</text><text x="40" y="380" font-size="13.5" fill="#7a6a50">Evening, 3 October</text><text x="1040" y="380" text-anchor="end" font-size="13.5" fill="#7a6a50">Night · merged by 02:45</text>
</svg>
